<svg xmlns="http://www.w3.org/2000/svg" width="20" height="20" fill="none"><path fill="#fff" d="M10 .146c.38 0 .688.308.688.687v.917a.688.688 0 0 1-1.376 0V.833c0-.38.308-.687.688-.687ZM10 4.73a5.27 5.27 0 1 0 0 10.54 5.27 5.27 0 0 0 0-10.54ZM4.004 3.032a.688.688 0 0 0-.972.972l.648.648a.687.687 0 1 0 .972-.972l-.648-.648ZM19.854 10c0 .38-.308.687-.687.687h-.917a.687.687 0 1 1 0-1.375h.917c.38 0 .687.308.687.688ZM16.968 4.004a.687.687 0 1 0-.972-.972l-.649.648a.687.687 0 0 0 .973.972l.648-.648ZM10 17.562c.38 0 .688.308.688.688v.917a.687.687 0 1 1-1.376 0v-.917c0-.38.308-.688.688-.688ZM16.32 15.347a.688.688 0 1 0-.973.973l.649.648a.688.688 0 0 0 .972-.972l-.648-.649ZM2.437 10c0 .38-.307.687-.687.687H.833a.687.687 0 1 1 0-1.375h.917c.38 0 .687.308.687.688ZM4.652 16.32a.688.688 0 0 0-.972-.973l-.648.649a.688.688 0 0 0 .972.972l.648-.648Z"/></svg>