<svg width="26" height="20" viewBox="0 0 26 20" fill="none" xmlns="http://www.w3.org/2000/svg">
<path fill-rule="evenodd" clip-rule="evenodd" d="M20.1254 7.0625C18.5348 7.0625 17.161 8.17506 16.8304 9.73088L16.8027 9.86139C16.7178 10.261 16.7028 10.6724 16.7584 11.0771L16.9497 12.468C16.8782 12.4766 16.8068 12.4856 16.7354 12.4949C15.6358 12.6377 14.8129 13.5744 14.8129 14.6832V17.5668C14.8129 18.6757 15.6358 19.6123 16.7354 19.7551C18.986 20.0474 21.2649 20.0474 23.5154 19.7551C24.615 19.6123 25.4379 18.6757 25.4379 17.5668V14.6832C25.4379 13.5744 24.615 12.6377 23.5154 12.4949C23.444 12.4856 23.3726 12.4766 23.3011 12.468L23.4924 11.0771C23.548 10.6724 23.5331 10.261 23.4481 9.86139L23.4204 9.73088C23.0898 8.17506 21.716 7.0625 20.1254 7.0625ZM21.4305 12.3081L21.6348 10.8217C21.661 10.6318 21.6539 10.4387 21.6141 10.2511L21.5864 10.1206C21.4398 9.43079 20.8306 8.9375 20.1254 8.9375C19.4202 8.9375 18.811 9.43079 18.6645 10.1206L18.6367 10.2511C18.5969 10.4387 18.5898 10.6318 18.616 10.8217L18.8203 12.3081C19.6898 12.2649 20.561 12.2649 21.4305 12.3081Z" fill="white"/>
<path d="M22.865 5.47618C22.897 5.68614 22.6641 5.83784 22.4742 5.74263C21.7633 5.38602 20.9637 5.1875 20.1254 5.1875C17.6495 5.1875 15.511 6.91932 14.9964 9.34115L14.9686 9.47165C14.8697 9.93716 14.8328 10.413 14.8583 10.887C14.8688 11.0807 14.7775 11.2664 14.6206 11.3805C13.5941 12.1271 12.9379 13.3365 12.9379 14.6832V16.4567C12.9379 16.6622 12.7724 16.8296 12.5668 16.8309C10.2301 16.8455 7.89299 16.7694 5.56074 16.6026L3.66823 16.4672C2.45759 16.3806 1.45903 15.4856 1.24088 14.2916C0.706314 11.3659 0.614798 8.37641 0.9694 5.42346L1.31001 2.58707C1.47442 1.2179 2.63596 0.1875 4.01496 0.1875H6.87942C8.11983 0.1875 9.12538 1.19305 9.12538 2.43346C9.12538 2.47443 9.15859 2.50765 9.19957 2.50765H20.0906C21.4164 2.50765 22.5457 3.47099 22.7547 4.78021L22.8348 5.282C22.8451 5.3467 22.8552 5.41143 22.865 5.47618Z" fill="white"/>
</svg>
