<svg width="18" height="25" viewBox="0 0 18 25" fill="none" xmlns="http://www.w3.org/2000/svg">
<path fill-rule="evenodd" clip-rule="evenodd" d="M12.1179 0.0625167L12.1122 0.0625H5.88671L5.88105 0.0625167H4.62447C4.10671 0.0625167 3.68697 0.48225 3.68697 1.00002C3.68697 1.51778 4.10671 1.93752 4.62447 1.93752H4.94921V8.2639C-0.615432 10.8944 -1.41933 18.5649 3.58221 22.2744L3.95096 22.5479C6.9493 24.7717 11.0496 24.7717 14.048 22.5479L14.4167 22.2744C19.4182 18.5649 18.6143 10.8944 13.0497 8.2639V1.93752H13.3745C13.8922 1.93752 14.312 1.51778 14.312 1.00002C14.312 0.48225 13.8922 0.0625167 13.3745 0.0625167H12.1179ZM3.87054 11.3125H14.1284C13.5631 10.7185 12.8631 10.2197 12.0339 9.86218C11.5125 9.63735 11.1747 9.1239 11.1747 8.55604V1.93752H6.82421V8.55604C6.82421 9.1239 6.48643 9.63735 5.96497 9.86218C5.13576 10.2197 4.43584 10.7185 3.87054 11.3125ZM6.49947 17.25C5.80912 17.25 5.24947 17.8097 5.24947 18.5C5.24947 19.1904 5.80912 19.75 6.49947 19.75C7.18983 19.75 7.74947 19.1904 7.74947 18.5C7.74947 17.8097 7.18983 17.25 6.49947 17.25ZM8.99947 16C8.99947 15.3097 9.55912 14.75 10.2495 14.75C10.9398 14.75 11.4995 15.3097 11.4995 16C11.4995 16.6904 10.9398 17.25 10.2495 17.25C9.55912 17.25 8.99947 16.6904 8.99947 16Z" fill="white"/>
</svg>
