<svg xmlns="http://www.w3.org/2000/svg" width="16" height="16" fill="none"><path fill="#000" d="M7.313 14.417c0-.38.308-.688.688-.688h5.5a.23.23 0 0 0 .229-.229v-11a.23.23 0 0 0-.23-.229H8A.688.688 0 0 1 8 .896h5.5c.887 0 1.605.718 1.605 1.604v11c0 .886-.718 1.604-1.604 1.604H8a.688.688 0 0 1-.688-.687Z"/><path fill="#000" d="M.209 9.022c0 .507.41.917.917.917h4.451c.021.326.047.652.079.977l.027.28a.658.658 0 0 0 .94.53A15.44 15.44 0 0 0 11.1 8.48l.028-.028a.661.661 0 0 0 0-.915L11.1 7.51a15.44 15.44 0 0 0-4.477-3.244.658.658 0 0 0-.94.53l-.027.28c-.032.325-.058.65-.079.976H1.126a.917.917 0 0 0-.917.917v2.053Z"/></svg>