<svg xmlns="http://www.w3.org/2000/svg" width="18" height="12" fill="none"><path fill="#000" d="M9 3.938a2.062 2.062 0 1 0 0 4.125 2.062 2.062 0 0 0 0-4.125Z"/><path fill="#000" fill-rule="evenodd" d="M9 .042c-2.4 0-4.558.964-6.113 2.157-.778.598-1.417 1.261-1.865 1.907-.44.633-.73 1.3-.73 1.894 0 .595.29 1.26.73 1.894.448.646 1.087 1.31 1.865 1.907C4.442 10.995 6.6 11.958 9 11.958c2.4 0 4.558-.963 6.113-2.157.778-.597 1.417-1.26 1.865-1.907.44-.633.73-1.3.73-1.894 0-.594-.29-1.26-.73-1.894-.448-.646-1.087-1.31-1.865-1.907C13.558 1.006 11.4.042 9 .042ZM5.563 6a3.437 3.437 0 1 1 6.875 0 3.437 3.437 0 0 1-6.875 0Z" clip-rule="evenodd"/></svg>