<svg width="20" height="20" viewBox="0 0 20 20" fill="none" xmlns="http://www.w3.org/2000/svg">
<path d="M9.99935 3.125C8.27346 3.125 6.87435 4.52411 6.87435 6.25C6.87435 7.97589 8.27346 9.375 9.99935 9.375C11.7252 9.375 13.1243 7.97589 13.1243 6.25C13.1243 4.52411 11.7252 3.125 9.99935 3.125Z" fill="white"/>
<path d="M6.66602 11.0417C4.94013 11.0417 3.54102 12.4408 3.54102 14.1667V15.1569C3.54102 15.7846 3.99592 16.3198 4.61541 16.4209C8.1811 17.0031 11.8176 17.0031 15.3833 16.4209C16.0028 16.3198 16.4577 15.7846 16.4577 15.1569V14.1667C16.4577 12.4408 15.0586 11.0417 13.3327 11.0417H13.0486C12.8949 11.0417 12.7421 11.066 12.596 11.1137L11.8747 11.3492C10.6561 11.7471 9.34258 11.7471 8.124 11.3492L7.40274 11.1137C7.25659 11.066 7.10382 11.0417 6.95007 11.0417H6.66602Z" fill="white"/>
</svg>
